<svg xmlns="http://www.w3.org/2000/svg" version="1.1" xmlns:xlink="http://www.w3.org/1999/xlink" xmlns:svgjs="http://svgjs.dev/svgjs" width="2000" height="1999" viewBox="0 0 2000 1999"><g transform="matrix(1,0,0,1,-0.431486880466764,-0.4312711370263287)"><svg viewBox="0 0 343 343" data-background-color="#ffffff" preserveAspectRatio="xMidYMid meet" height="1999" width="2000" xmlns="http://www.w3.org/2000/svg" xmlns:xlink="http://www.w3.org/1999/xlink"><g id="tight-bounds" transform="matrix(1,0,0,1,0.0740000000000407,0.07400000000001228)"><svg viewBox="0 0 342.85155851775386 342.85155851775386" height="342.85155851775386" width="342.85155851775386"><g><svg></svg></g><g><svg viewBox="0 0 342.85155851775386 342.85155851775386" height="342.85155851775386" width="342.85155851775386"><g><path d="M0 171.426c0-94.676 76.75-171.426 171.426-171.426 94.676 0 171.426 76.75 171.426 171.426 0 94.676-76.75 171.426-171.426 171.426-94.676 0-171.426-76.75-171.426-171.426zM171.426 327.249c86.059 0 155.823-69.764 155.823-155.823 0-86.059-69.764-155.823-155.823-155.823-86.059 0-155.823 69.764-155.823 155.823 0 86.059 69.764 155.823 155.823 155.823z" data-fill-palette-color="tertiary" fill="#ee3e38" stroke="transparent"></path><ellipse rx="164.56874808852186" ry="164.56874808852186" cx="171.42577925887693" cy="171.42577925887693" fill="#ee3e38" stroke="transparent" stroke-width="0" fill-opacity="1" data-fill-palette-color="tertiary"></ellipse></g><g transform="matrix(1,0,0,1,64.84655864529837,84.91667161798524)"><svg viewBox="0 0 213.1584412271571 173.01821528178337" height="173.01821528178337" width="213.1584412271571"><g><svg viewBox="0 0 213.1584412271571 173.01821528178337" height="173.01821528178337" width="213.1584412271571"><g><svg viewBox="0 0 213.1584412271571 173.01821528178337" height="173.01821528178337" width="213.1584412271571"><g><svg viewBox="0 0 213.1584412271571 173.01821528178337" height="173.01821528178337" width="213.1584412271571"><g id="textblocktransform"><svg viewBox="0 0 213.1584412271571 173.01821528178337" height="173.01821528178337" width="213.1584412271571" id="textblock"><g><svg viewBox="0 0 213.1584412271571 173.01821528178337" height="173.01821528178337" width="213.1584412271571"><g transform="matrix(1,0,0,1,0,0)"><svg width="213.1584412271571" viewBox="3.1500000953674316 -25 30.80000114440918 25" height="173.01821528178337" data-palette-color="#ffffff"><path d="M31.1-16.3L31.1-16.3 31.05-14.6Q27.05-12.45 21.05-11.25L21.05-11.25Q25.35-10.1 29.35-10.1L29.35-10.1 30.4-10.1Q33.15-6.05 33.95 0L33.95 0 21 0Q20.5-3.5 18.98-6.03 17.45-8.55 15.25-9.45L15.25-9.45Q15.2-8.6 15.2-6.05 15.2-3.5 15.5 0L15.5 0 4.6 0Q3.15-7.25 3.15-13.48 3.15-19.7 3.85-25L3.85-25 29.95-25Q31.1-19.95 31.1-16.3ZM16.3-21.65L16.3-21.65Q15.7-17.25 15.4-13L15.4-13Q18.15-13.4 19.9-14.95L19.9-14.95Q18.95-18.3 16.3-21.65Z" opacity="1" transform="matrix(1,0,0,1,0,0)" fill="#ffffff" class="wordmark-text-0" data-fill-palette-color="quaternary" id="text-0"></path></svg></g></svg></g></svg></g></svg></g><g></g></svg></g></svg></g></svg></g></svg></g><defs></defs></svg><rect width="342.85155851775386" height="342.85155851775386" fill="none" stroke="none" visibility="hidden"></rect></g></svg></g></svg>