<?xml version="1.0" encoding="UTF-8"?>
<svg version="1.1" viewBox="0 0 2000 1999" xmlns="http://www.w3.org/2000/svg">
<g transform="translate(-.43149 -.43127)">
<svg width="2e3" height="1999" data-background-color="#ffffff" viewBox="0 0 343 343" xmlns="http://www.w3.org/2000/svg" xmlns:xlink="http://www.w3.org/1999/xlink">
<g transform="translate(.074 .074)">
<svg width="342.85" height="342.85" viewBox="0 0 342.85155851775386 342.85155851775386">
<svg/>
<svg width="342.85" height="342.85" viewBox="0 0 342.85155851775386 342.85155851775386">
<g fill="#ee3e38" stroke="transparent">
<path d="m0 171.43c0-94.676 76.75-171.43 171.43-171.43s171.43 76.75 171.43 171.43-76.75 171.43-171.43 171.43-171.43-76.75-171.43-171.43zm171.43 155.82c86.059 0 155.82-69.764 155.82-155.82s-69.764-155.82-155.82-155.82-155.82 69.764-155.82 155.82 69.764 155.82 155.82 155.82z" data-fill-palette-color="tertiary"/>
<ellipse cx="171.43" cy="171.43" rx="164.57" ry="164.57" stroke-width="0" data-fill-palette-color="tertiary"/>
</g>
<g transform="translate(64.847 84.917)">
<svg width="213.16" height="173.02" viewBox="0 0 213.1584412271571 173.01821528178337">
<svg width="213.16" height="173.02" viewBox="0 0 213.1584412271571 173.01821528178337">
<svg width="213.16" height="173.02" viewBox="0 0 213.1584412271571 173.01821528178337">
<svg width="213.16" height="173.02" viewBox="0 0 213.1584412271571 173.01821528178337">
<svg width="213.16" height="173.02" viewBox="0 0 213.1584412271571 173.01821528178337">
<svg width="213.16" height="173.02" viewBox="0 0 213.1584412271571 173.01821528178337">
<g>
<svg width="213.16" height="173.02" data-palette-color="#ffffff" viewBox="3.1500000953674316 -25 30.80000114440918 25">
<path class="wordmark-text-0" d="m31.1-16.3-0.05 1.7q-4 2.15-10 3.35 4.3 1.15 8.3 1.15h1.05q2.75 4.05 3.55 10.1h-12.95q-0.5-3.5-2.02-6.03-1.53-2.52-3.73-3.42-0.05 0.85-0.05 3.4t0.3 6.05h-10.9q-1.45-7.25-1.45-13.48 0-6.22 0.7-11.52h26.1q1.15 5.05 1.15 8.7zm-14.8-5.35q-0.6 4.4-0.9 8.65 2.75-0.4 4.5-1.95-0.95-3.35-3.6-6.7z" fill="#fff" data-fill-palette-color="quaternary"/>
</svg>
</g>
</svg>
</svg>
</svg>
</svg>
</svg>
</svg>
</g>
</svg>
</svg>
<rect width="342.85" height="342.85" fill="none" visibility="hidden"/>
</g>
</svg>
</g>
</svg>
